<?xml version="1.0" encoding="UTF-8" standalone="no"?>
<svg
   xml:space="preserve"
   viewBox="0 0 182.3867 182.12291"
   version="1.1"
   id="svg128"
   xmlns="http://www.w3.org/2000/svg"
   xmlns:svg="http://www.w3.org/2000/svg"><defs
   id="defs132" />
  <path
   d="m 86.15415,158.91787 c -0.623461,-0.0918 -2.238782,-0.26732 -3.589608,-0.38994 -2.871781,-0.26066 -4.290306,-0.56283 -8.690627,-1.85125 -0.103909,-0.0304 -0.443977,-0.12104 -0.755704,-0.20151 -4.015996,-1.03585 -10.127411,-3.61628 -13.4138,-5.66372 -0.727364,-0.45314 -1.492523,-0.9239 -1.700341,-1.04613 -4.347559,-2.55702 -10.620069,-7.66769 -14.320351,-11.66785 -2.608042,-2.81941 -6.425546,-7.92407 -7.793246,-10.4209 -0.489245,-0.89316 -1.176175,-2.12602 -1.526511,-2.73969 -0.350336,-0.61368 -0.636975,-1.16416 -0.636975,-1.22328 0,-0.0591 -0.542928,-1.2989 -1.206505,-2.75505 -0.663577,-1.45615 -1.266723,-2.86049 -1.340323,-3.12076 -0.07361,-0.26026 -0.369373,-1.05076 -0.657277,-1.75667 -0.287902,-0.7059 -0.628121,-1.63888 -0.75604,-2.07328 -0.127915,-0.43442 -0.387625,-1.14526 -0.577122,-1.57966 -0.948142,-2.17351 -2.594875,-10.34214 -2.985422,-14.809193 -0.216785,-2.47958 -0.142611,-12.144243 0.106851,-13.920646 0.129629,-0.923109 0.28492,-2.122651 0.345096,-2.66566 0.245228,-2.212803 1.046819,-5.600029 2.611706,-11.036076 1.459382,-5.069544 3.359285,-9.262801 7.016143,-15.485259 0.777164,-1.322412 2.517092,-4.019121 2.999411,-4.648776 2.586866,-3.37709 6.365614,-7.640358 8.434239,-9.515697 1.737704,-1.575338 2.014244,-1.806387 4.146213,-3.464155 2.273076,-1.76748 4.673054,-3.452507 5.240362,-3.679257 0.183141,-0.0732 0.715554,-0.439595 1.183152,-0.814211 0.467591,-0.37462 1.657833,-1.076671 2.644969,-1.560115 0.987144,-0.483444 2.008305,-0.995727 2.269242,-1.138409 0.990307,-0.541491 3.621859,-1.565291 7.172884,-2.7906 6.680487,-2.305155 9.075488,-2.788039 17.647999,-3.558219 3.567698,-0.320531 3.94976,-0.319939 7.557067,0.01164 2.089664,0.192108 4.096955,0.424944 4.460638,0.517414 0.36368,0.09247 1.08632,0.211332 1.60588,0.264138 0.51954,0.05281 1.45473,0.242419 2.07819,0.421363 0.62346,0.178944 1.30359,0.360274 1.51141,0.402952 3.18712,0.654516 9.54207,2.657072 11.14669,3.512517 0.7766,0.414013 2.2535,1.039668 2.26098,0.957812 0.0129,-0.133183 3.0012,1.363785 4.1346,2.070711 4.90148,3.057187 12.68404,9.168233 14.19743,11.148164 0.31171,0.407825 0.80304,0.933788 1.09179,1.168807 0.5564,0.45287 2.55878,2.821287 3.82031,4.518711 0.41563,0.559254 1.32956,1.743393 2.03094,2.631418 0.70139,0.888026 1.27526,1.688833 1.27526,1.779567 0,0.09073 0.34006,0.635735 0.75571,1.211095 0.41564,0.57536 0.7557,1.100771 0.7557,1.167571 0,0.06679 0.24773,0.560591 0.55052,1.097301 0.53893,0.955289 2.63627,5.281796 3.89062,8.025787 0.34751,0.760209 0.86397,2.181892 1.14767,3.159301 0.28371,0.977402 0.67893,2.176952 0.87826,2.665653 0.19934,0.488701 0.43412,1.243977 0.52173,1.678377 0.27041,1.340651 1.14699,5.081164 1.43468,6.121963 0.30404,1.100025 0.52369,2.868703 0.91944,7.403776 0.80948,9.276182 -0.25663,18.529305 -3.17784,27.581535 -0.66172,2.05057 -1.4269,4.22264 -1.70037,4.82684 -0.27349,0.60418 -0.49724,1.15624 -0.49724,1.22678 0,0.12538 -1.29171,2.90152 -2.35724,5.06623 -0.66535,1.35171 -3.86255,6.40129 -5.11572,8.0796 -2.45482,3.28767 -4.73558,5.93931 -6.84395,7.95686 -0.42166,0.40351 -0.87981,0.89585 -1.01811,1.0941 -0.13824,0.19824 -0.54899,0.5734 -0.91269,0.83368 -0.36368,0.26027 -0.87377,0.70558 -1.13356,0.98958 -0.67669,0.73981 -3.69273,3.12085 -4.53286,3.57851 -0.39137,0.21321 -0.86262,0.56207 -1.04721,0.77526 -0.1846,0.21318 -0.85373,0.69933 -1.48693,1.08031 -0.63323,0.381 -1.92996,1.21431 -2.88165,1.8518 -0.95169,0.6375 -2.35448,1.44558 -3.11729,1.79574 -0.76282,0.35018 -2.32213,1.11099 -3.46515,1.69074 -1.99829,1.01354 -7.53975,3.05151 -8.29739,3.05151 -0.20152,0 -0.62749,0.0837 -0.94659,0.18599 -2.23012,0.7149 -5.91597,1.40396 -9.64868,1.80377 -2.385325,0.25548 -10.350802,0.37181 -11.713452,0.17104 z m 9.068483,-3.9347 c 1.246917,-0.10194 2.607189,-0.23805 3.022826,-0.30254 9.282571,-1.44058 14.020501,-2.94566 20.781931,-6.60173 4.93162,-2.66663 5.27226,-2.86824 4.95641,-2.93333 -0.16096,-0.0331 -1.25545,0.12956 -2.43218,0.36168 -1.17675,0.2321 -2.52364,0.46094 -2.99312,0.50853 -0.46947,0.0476 -1.66124,0.19581 -2.64839,0.32939 -1.92856,0.26101 -11.20087,0.322 -13.13041,0.0864 -0.62346,-0.0761 -2.19627,-0.26739 -3.495143,-0.42504 -3.633791,-0.44103 -9.182525,-1.64452 -12.185778,-2.64305 -1.965076,-0.65334 -6.949017,-2.84132 -8.879547,-3.89815 -0.727371,-0.39818 -1.790083,-0.97897 -2.361583,-1.29064 -0.571507,-0.31165 -1.514679,-0.9008 -2.095933,-1.3092 -0.581261,-0.4084 -1.558958,-1.09635 -2.172659,-1.52875 -3.216426,-2.2663 -8.263137,-7.10206 -11.177869,-10.71061 -2.984816,-3.69533 -6.327373,-10.19775 -7.49343,-14.57729 -0.25878,-0.97196 -0.681679,-2.52246 -0.939766,-3.44557 -0.75709,-2.70787 -1.085948,-6.06158 -1.093938,-11.156262 -0.0064,-4.026252 0.0502,-4.899912 0.498245,-7.700777 0.27796,-1.737618 0.7059,-3.825717 0.95097,-4.640218 0.245071,-0.814509 0.668761,-2.236192 0.941537,-3.159301 0.798034,-2.700647 1.376067,-4.085015 2.850624,-6.827118 1.559972,-2.900951 2.429682,-4.198414 4.821063,-7.192255 3.384879,-4.237632 7.189836,-7.365096 12.738498,-10.470336 2.46487,-1.379444 6.911883,-2.980177 9.918649,-3.570291 3.389895,-0.665311 9.394587,-0.907833 11.807918,-0.476902 0.83128,0.148437 2.361583,0.411907 3.400681,0.585494 1.039098,0.173588 2.314351,0.485 2.833901,0.692028 0.51955,0.207036 1.53975,0.571442 2.26712,0.8098 1.95462,0.640519 5.68161,2.436683 7.08476,3.414383 1.67752,1.168885 3.12538,2.234551 4.45533,3.279238 1.28679,1.010768 4.75479,4.677435 4.91121,5.192548 0.058,0.190617 0.17957,0.346584 0.27041,0.346584 0.40391,0 3.29109,4.614471 4.20051,6.713503 0.16467,0.3801 0.5193,1.196318 0.78804,1.813814 0.26874,0.617496 0.48863,1.260373 0.48863,1.428609 0,0.168236 0.30903,1.262402 0.68671,2.431489 0.76038,2.353636 0.75084,2.305425 1.0076,5.08744 0.34127,3.697668 0.23509,5.834275 -0.56221,11.314181 -0.19088,1.31186 -0.39128,2.0365 -1.4035,5.074664 -0.51996,1.560655 -2.95084,6.541255 -3.70368,7.588425 -1.77815,2.47334 -4.02591,4.93392 -5.8491,6.40292 -3.53407,2.84748 -8.44854,5.23039 -12.28024,5.95436 -2.55639,0.48303 -7.542665,0.59926 -9.257415,0.2158 -0.779325,-0.17427 -1.622023,-0.31693 -1.872663,-0.31702 -0.442692,-1.5e-4 -1.282705,-0.22602 -3.769026,-1.01346 -1.577166,-0.4995 -3.889443,-1.71389 -5.882842,-3.08962 -1.585392,-1.09413 -6.234574,-5.7173 -6.234574,-6.19967 0,-0.12657 -0.116405,-0.37049 -0.258673,-0.54194 -0.518468,-0.62484 -2.157885,-4.1065 -2.639886,-5.60638 -0.585503,-1.82197 -1.271265,-5.422602 -1.334531,-7.007043 -0.04477,-1.12166 0.164326,-4.255513 0.371537,-5.568074 0.372136,-2.357196 1.759643,-5.914374 3.146471,-8.066661 2.53779,-3.938533 6.502452,-6.861074 10.917113,-8.047519 1.629571,-0.437953 2.388496,-0.531881 4.250855,-0.52609 3.499978,0.0109 6.189461,0.835629 8.737054,2.679325 5.05634,3.659271 6.38852,5.527661 7.30861,10.250322 0.32952,1.691452 0.3775,3.64545 0.11539,4.697906 -0.0947,0.380101 -0.29356,1.179796 -0.44196,1.777104 -0.71557,2.880211 -2.71769,5.840074 -4.75863,7.03501 -2.692128,1.5762 -3.8789,1.9343 -5.983573,1.80549 -2.641385,-0.16167 -5.057529,-1.2612 -6.413831,-2.918774 -1.492808,-1.824419 -2.23948,-3.574344 -2.045421,-4.793723 0.159127,-0.999917 1.008358,-1.918683 1.770189,-1.915138 1.360287,0.0067 1.791625,0.477977 2.298982,2.513783 0.454416,1.823389 1.563813,2.788036 3.703604,3.220355 1.114923,0.22526 1.408342,0.21517 2.437244,-0.08381 1.496985,-0.434983 2.561796,-1.091928 3.490816,-2.153683 1.70459,-1.948131 2.13049,-3.020402 2.28108,-5.743116 0.20051,-3.624837 -0.57386,-5.949771 -2.65847,-7.981793 -2.300726,-2.24267 -3.798725,-3.295156 -5.684641,-3.993982 -1.45457,-0.538994 -2.081766,-0.665811 -3.561629,-0.720141 -2.636186,-0.09678 -6.170545,0.942662 -8.34075,2.452983 -3.102714,2.159287 -5.393648,5.435427 -6.65209,9.512793 -0.907648,2.940802 -0.799833,8.289645 0.233789,11.599036 1.543555,4.94201 4.646126,8.91496 9.157735,11.72679 2.211567,1.37834 2.71384,1.58726 7.084756,2.94682 0.311727,0.097 1.896898,0.27527 3.522599,0.39626 2.737675,0.20374 3.114141,0.18904 5.101021,-0.1992 4.17898,-0.81659 7.07401,-2.03104 10.49777,-4.40377 1.8494,-1.28168 4.51232,-3.93098 5.8924,-5.86224 1.34036,-1.87569 1.30803,-1.81903 2.6487,-4.64044 1.84413,-3.880912 2.52982,-6.524825 2.93597,-11.320518 0.21819,-2.57612 0.2167,-3.444369 -0.01,-5.824954 -0.14648,-1.538672 -0.39374,-3.132591 -0.54945,-3.542044 -0.1557,-0.409452 -0.2831,-0.877854 -0.2831,-1.040896 0,-0.316524 -1.09735,-3.377367 -1.71929,-4.795588 -1.15875,-2.642383 -5.07859,-8.098214 -7.24632,-10.085772 -0.30708,-0.281583 -0.94472,-0.879571 -1.41694,-1.328875 -1.65913,-1.578599 -4.65403,-3.379203 -8.51012,-5.116478 -2.5734,-1.159385 -5.874403,-2.078165 -8.861455,-2.46643 -2.00924,-0.261172 -6.203163,-0.318495 -7.764099,-0.106123 -2.947421,0.401012 -3.835371,0.560457 -5.611059,1.007582 -1.064119,0.267948 -2.298618,0.632287 -2.743323,0.809643 -0.996476,0.397407 -2.769286,1.205834 -3.225788,1.470998 -0.186475,0.108302 -0.824104,0.469223 -1.416954,0.802016 -3.331853,1.870346 -9.209466,6.612104 -10.324354,8.329162 -0.253567,0.390518 -1.092587,1.491282 -1.864494,2.446138 -2.497739,3.089747 -4.010047,5.811155 -4.935932,8.882238 -0.288414,0.956662 -0.806753,2.672369 -1.151848,3.812671 -0.628231,2.075867 -1.023717,3.957287 -1.40695,6.693188 -0.11252,0.80333 -0.246163,1.530903 -0.296982,1.616839 -0.20302,0.343323 -0.07658,6.575886 0.188989,9.315253 0.571328,5.8935 2.526586,12.16619 5.190978,16.65328 0.315919,0.53204 0.663492,1.18005 0.772392,1.44004 0.210046,0.50146 1.320557,2.05148 1.545127,2.15661 0.07329,0.0343 0.75172,0.83401 1.507617,1.7771 3.101757,3.86989 9.129042,9.36198 12.161742,11.08183 0.722887,0.40995 1.866951,1.09671 2.542367,1.52612 0.67541,0.42942 1.695614,0.98651 2.267121,1.23798 0.5715,0.25147 1.814596,0.84281 2.762439,1.3141 0.947837,0.47129 2.053057,0.93934 2.45604,1.0401 0.402991,0.10075 1.115281,0.31971 1.582872,0.48652 2.443649,0.87179 4.062095,1.34592 5.8264,1.70689 1.074373,0.21981 2.018023,0.4414 2.097005,0.49242 0.192045,0.12403 4.072234,0.66706 7.001809,0.97988 6.42419,0.68594 15.57401,0.0528 21.63211,-1.49688 2.38173,-0.60926 2.94099,-0.79559 5.6193,-1.87216 0.90852,-0.36518 1.81162,-0.66396 2.0069,-0.66396 0.34273,0 1.94711,-1.2514 3.16684,-2.47009 0.66153,-0.66096 3.11687,-3.69866 4.41556,-5.46285 1.5922,-2.16288 2.64497,-3.65991 2.64497,-3.76112 0,-0.0555 0.36133,-0.68392 0.80294,-1.39636 3.50197,-5.64949 5.91612,-11.45726 7.30362,-17.57035 0.6101,-2.68806 0.80401,-3.60759 0.88359,-4.19022 0.13853,-1.01387 0.66216,-4.267346 0.85808,-5.331317 0.26943,-1.463147 0.36104,-10.570757 0.1321,-13.130824 -0.0923,-1.03171 -0.2979,-2.586673 -0.45696,-3.455482 -0.15907,-0.868802 -0.31262,-1.846211 -0.34123,-2.172011 -0.0286,-0.325808 -0.14804,-0.903363 -0.2654,-1.283471 -0.11739,-0.3801 -0.48136,-1.890637 -0.8089,-3.356747 -0.60216,-2.695348 -1.6764,-6.108798 -2.50794,-7.969151 -0.24955,-0.558307 -0.5173,-1.232081 -0.59499,-1.497275 -0.43448,-1.483029 -3.44331,-7.028318 -5.37567,-9.90738 -4.12296,-6.142852 -8.60139,-11.244187 -12.20822,-13.906263 -0.71891,-0.530593 -1.85971,-1.423298 -2.53512,-1.983786 -0.67541,-0.56049 -2.0782,-1.618603 -3.11729,-2.351365 -3.93464,-2.774663 -6.18309,-4.001353 -9.63527,-5.256722 -1.18988,-0.432698 -2.0547,-0.852643 -2.02323,-0.982465 0.0303,-0.124705 -0.0631,-0.179381 -0.20743,-0.121496 -0.14431,0.05788 -1.35929,-0.203074 -2.69994,-0.579893 -5.03142,-1.414192 -8.023,-2.075138 -11.600487,-2.562954 -3.177118,-0.433224 -4.126024,-0.486732 -6.895824,-0.388859 -1.766462,0.06242 -3.764363,0.195091 -4.439779,0.294824 -0.675409,0.09973 -1.823144,0.23488 -2.550503,0.300322 -1.369927,0.123257 -2.216423,0.275787 -5.101022,0.91917 -0.935189,0.208582 -2.082916,0.42482 -2.550514,0.480526 -0.467591,0.0557 -1.020205,0.178928 -1.228023,0.273823 -0.599926,0.273947 -3.335738,1.157264 -4.061923,1.31148 -0.363682,0.07724 -0.958803,0.295079 -1.322485,0.484099 -0.363689,0.189021 -1.213856,0.537152 -1.889272,0.773623 -2.323845,0.813609 -8.939582,4.633677 -11.713452,6.763599 -0.675417,0.518617 -1.60977,1.234754 -2.07634,1.591417 -2.297282,1.756111 -4.581542,3.820462 -5.879316,5.313299 -2.912744,3.350542 -3.986325,4.635543 -4.573563,5.474222 -0.330655,0.472238 -0.863954,1.18308 -1.185111,1.579651 -0.887981,1.096502 -2.48112,3.644398 -3.333804,5.331738 -0.419808,0.830741 -0.943891,1.736551 -1.164632,2.012917 -0.220738,0.276366 -0.643619,1.098279 -0.939736,1.826471 -0.296118,0.728186 -0.613845,1.323987 -0.706065,1.323987 -0.09221,0 -0.167668,0.09373 -0.167668,0.208282 0,0.114571 -0.160792,0.581054 -0.357313,1.03665 -1.507154,3.494005 -2.127753,5.187107 -3.438867,9.381812 -1.028683,3.291118 -1.763327,7.474726 -2.121374,12.080696 -0.20914,2.69043 -0.121989,10.461814 0.137298,12.242269 0.05535,0.3801 0.151865,1.22423 0.214472,1.875834 0.267419,2.78334 1.31006,7.44708 2.087291,9.33649 0.146708,0.35664 0.26674,0.76735 0.26674,0.91271 0,0.87737 3.001738,8.56276 4.24893,10.87859 1.621264,3.01042 2.561718,4.58772 4.992206,8.37277 1.719768,2.67822 6.995653,8.47236 9.817304,10.78166 0.66267,0.54234 1.342806,1.14476 1.511409,1.33872 0.168602,0.19395 0.986693,0.81537 1.817966,1.38094 0.83128,0.56557 1.609899,1.12545 1.730267,1.24418 0.751049,0.74085 5.68746,3.60348 8.093921,4.69368 1.143007,0.51782 2.459215,1.12273 2.9249,1.34426 2.481836,1.1806 11.946648,3.70809 15.117603,4.037 0.467599,0.0485 1.062712,0.14239 1.322485,0.20872 0.453677,0.11583 4.811412,0.36715 7.368138,0.42501 0.675417,0.0154 2.248234,-0.0557 3.495151,-0.15748 z"
   id="path126"
   style="stroke-width:0.729994;fill:#008000" />
</svg>
