<svg xmlns="http://www.w3.org/2000/svg" width="800" height="800"
   data-name="user avatar square outline" viewBox="0 0 24 24">
   <path fill="none" d="M0 0h24v24H0z" />
   <g fill="transparent" stroke="currentColor" stroke-miterlimit="10" stroke-width="1.5" data-name="Rectangle 2"
      transform="translate(3 3)">
      <rect width="18" height="18" stroke="none" rx="2" />
      <rect width="16.5" height="16.5" x=".75" y=".75" rx="1.25" />
   </g>
   <path fill="none" stroke="currentColor" stroke-miterlimit="10" stroke-width="1.139"
      d="M9.415 19.517c0-2.847 3.417-2.278 3.417-3.417a1.67 1.67 0 0 0-.312-1.139 2.622 2.622 0 0 1-.827-1.993 2.43 2.43 0 0 1 2.278-2.563 2.43 2.43 0 0 1 2.278 2.563 2.582 2.582 0 0 1-.841 1.993 1.746 1.746 0 0 0-.298 1.14c0 1.138 3.417.569 3.417 3.416"
      data-name="Combined Shape" style="stroke:currentColor;stroke-opacity:1" />
   <path d="M5.655 8.241h6.31M8.81 5.086v6.31"
      style="fill-opacity:1;stroke:currentColor;stroke-width:.9;stroke-linecap:butt;stroke-linejoin:miter;stroke-dasharray:none;stroke-opacity:1" />
</svg>