<?xml version="1.0" encoding="UTF-8" standalone="no"?>
<!-- Uploaded to: SVG Repo, www.svgrepo.com, Generator: SVG Repo Mixer Tools -->

<svg
   width="800px"
   height="800px"
   viewBox="0 0 24 24"
   id="user_avatar_square_outline"
   data-name="user avatar square outline"
   version="1.1"
   sodipodi:docname="user-avatar-square-outline-svgrepo-com.svg"
   inkscape:version="1.2.2 (b0a8486541, 2022-12-01)"
   xmlns:inkscape="http://www.inkscape.org/namespaces/inkscape"
   xmlns:sodipodi="http://sodipodi.sourceforge.net/DTD/sodipodi-0.dtd"
   xmlns="http://www.w3.org/2000/svg"
   xmlns:svg="http://www.w3.org/2000/svg">
  <defs
     id="defs63" />
  <sodipodi:namedview
     id="namedview61"
     pagecolor="#ffffff"
     bordercolor="#000000"
     borderopacity="0.25"
     inkscape:showpageshadow="2"
     inkscape:pageopacity="0.0"
     inkscape:pagecheckerboard="0"
     inkscape:deskcolor="#d1d1d1"
     showgrid="false"
     inkscape:zoom="0.87"
     inkscape:cx="377.01149"
     inkscape:cy="292.52874"
     inkscape:window-width="628"
     inkscape:window-height="1008"
     inkscape:window-x="1284"
     inkscape:window-y="37"
     inkscape:window-maximized="1"
     inkscape:current-layer="user_avatar_square_outline" />
  <rect
     id="Rectangle"
     width="24"
     height="24"
     fill="none" />
  <g
     id="Rectangle_2"
     data-name="Rectangle 2"
     transform="translate(3 3)"
     fill="none"
     stroke="#000000"
     stroke-miterlimit="10"
     stroke-width="1.5">
    <rect
       width="18"
       height="18"
       rx="2"
       stroke="none"
       id="rect54" />
    <rect
       x="0.75"
       y="0.75"
       width="16.5"
       height="16.5"
       rx="1.25"
       fill="none"
       id="rect56" />
  </g>
  <path
     id="Combined_Shape"
     data-name="Combined Shape"
     d="m 9.4154028,19.51725 c 0,-2.847475 3.4169702,-2.27798 3.4169702,-3.416971 a 1.6705189,1.6705189 0 0 0 -0.312083,-1.13899 2.6219554,2.6219554 0 0 1 -0.826907,-1.993232 2.4298457,2.4298457 0 0 1 2.27798,-2.562728 2.4298457,2.4298457 0 0 1 2.277981,2.562728 2.5817111,2.5817111 0 0 1 -0.841334,1.993232 1.7464516,1.7464516 0 0 0 -0.297657,1.13899 c 0,1.138991 3.416971,0.569496 3.416971,3.416971"
     fill="none"
     stroke="#000000"
     stroke-miterlimit="10"
     stroke-width="1.13899"
     style="stroke:#000000;stroke-opacity:1" />
  <path
     style="fill:#000000;fill-opacity:1;stroke:#000000;stroke-width:0.9;stroke-linecap:butt;stroke-linejoin:miter;stroke-dasharray:none;stroke-opacity:1"
     d="M 5.6545915,8.241375 H 11.96484"
     id="path1075" />
  <path
     style="fill:#000000;fill-opacity:1;stroke:#000000;stroke-width:0.9;stroke-linecap:butt;stroke-linejoin:miter;stroke-dasharray:none;stroke-opacity:1"
     d="M 8.8097157,5.0862511 V 11.396499"
     id="path1075-3" />
</svg>
