<svg xmlns="http://www.w3.org/2000/svg" xml:space="preserve" viewBox="0 0 71.577629 68.25074">
  <g   class="UnoptimicedTransforms">
    <path fill="transparent" d="M10.406056 28.351601c4.668651-8.543029 11.429189-17.474349 21.875415-18.6009316C46.535578 7.8738803 61.656981 13.90609 70.219514 25.578464c5.242712 7.399427 9.63496-3.311633 13.553879-6.460593 9.160431-7.762041 22.021127-11.6219436 33.900187-9.5017882 12.065 3.2049622 17.83927 17.1610492 16.59125 28.7382732-1.31442 12.903564-9.66293 23.566082-17.06694 33.7011-11.69449 15.300745-23.587372 30.456984-35.817053 45.333064-16.565241-6.41027-33.991243-11.91145-47.693617-23.720443C20.47155 82.675919 9.0181817 68.0522 5.7053824 50.848461c-1.1831078-7.772009.8488691-15.733832 4.7006736-22.49686Z" clip-path="url(#clipPath163)" transform="matrix(.35331734 0 0 .36439932 5.634906 14.810875)"/>
    <path  d="M67.3959 125.449c5.496707-.47619 7.138917 9.28704 11.9706 3.151 18.225339-11.04342 30.50981-28.932083 43.58952-45.240699 7.03358-9.488489 13.89008-19.499423 17.6906-30.767101 5.33788-17.384918-.3148-38.908609-16.41459-48.6162674-12.48116-6.809215-28.319301-3.2558497-39.594658 4.3816035-5.427316 1.9020729-9.138489 13.5248009-14.135063 5.7622959C59.113005 3.1766295 40.990384-1.0503453 26.374398 5.5098355 15.7152 10.850142 9.3173004 21.784181 4.292664 32.136645c-6.066118 13.487033-3.253596 28.985727 2.9840585 41.859971C18.920905 98.48633 41.524102 117.51992 67.3959 125.449ZM17.7895 30.135c4.108448-7.995131 9.84995-16.798283 19.576885-18.037277 13.052047-1.88426 26.646973 4.412727 33.951752 15.34814 5.01705 7.271825 8.886266-4.041862 12.761306-6.866465 8.14743-7.037945 19.834257-10.9691245 30.483747-8.387943 10.79923 3.988675 15.03024 17.01111 14.0708 27.643369-1.31338 13.475913-9.85172 24.678288-17.25513 35.508748C101.5327 89.181668 91.586201 102.95465 81.3067 116.474c-14.921824-6.22516-30.65949-11.71836-42.682273-23.001635-12.307771-11.114793-22.61888-25.750687-25.149114-42.4344-.805129-7.211918.974626-14.518117 4.314187-20.902965Z" clip-path="url(#clipPath163)" transform="matrix(.35331734 0 0 .36439932 5.634906 14.810875)"/>
  </g>
  <g >
    <path  d="M59.1518482 12.4215067c.925484-.1713934 1.7520142-.3213233 2.5777754-.4771264 1.3523343-.2552602 2.7006116-.5356085 4.0577229-.7610661.5658412-.0939805 1.1505141-.0781522 1.7269938-.1028153.247542-.0106445.5195732.0289298.5489634.3238115.0327625.3273619-.2426045.4126826-.506764.4311172-2.842346.1977917-5.5259984 1.1725995-8.3025981 1.6924455-.8182472.153157-1.200979-.068288-1.316603-.904603-.0410822-.263512-.0628484-.5296658-.0651473-.7963494.0168748-1.9088025.0185121-3.8182908.0804117-5.7257627.0198108-.6123617.197228-1.2213723.3255746-1.8270975.0219375-.1032.1973829-.2723009.238466-.2555196.1511529.0612554.3593449.165621.394629.2949761.1386242.508944.294756 1.031914.307063 1.5528177.0295537 1.257458-.0209304 2.5166336-.033322 3.775219-.0072577.7401496-.0019588 1.4805313-.0056295 2.220757-.0009823.1617935-.0157394.3239457-.027536.559196z"/>
    <path  d="M62.6635145 8.4041253c.925484-.1713934 1.7520143-.3213233 2.5777665-.4771162 1.3523432-.2552705 2.7006206-.5356188 4.0577318-.7610764.565836-.0939743 1.1505124-.0781501 1.726993-.1028142.2475404-.0106428.5195684.0289352.5489592.3238162.032765.3273592-.2426012.4126789-.5067633.4311165-2.8423417.1977866-5.526003 1.1726046-8.3025937 1.6924404-.8182472.153157-1.2010059-.0682574-1.316612-.9045927-.0410732-.2635223-.0628394-.5296761-.0651383-.7963597.0168747-1.9088025.018512-3.8182908.0804117-5.7257627.0198107-.6123617.197228-1.2213723.3255764-1.8270995.0219348-.103197.1973792-.2722968.2384642-.2555175.1511537.0612543.359343.165623.3946289.294976.1386189.5089502.294756 1.031914.307063 1.5528177.0295537 1.257458-.0209303 2.5166336-.033322 3.775219-.0072577.7401497-.0019676 1.4805416-.0056384 2.2207672-.0009733.1617833-.0157304.3239356-.027527.5591859z"/>
  </g>
  <path d="M16.188663 52.870538c3.33952-3.39405-2.352101 2.29283.984419-1.10458.66355-.67865 1.28294-1.40331 1.88566-2.13735.0984-.12246.15796-.27181.17039-.42855.0122-.15673-.023-.31355-.10107-.44997-.608933-.42174-1.134478.0836-1.58141.47444-4.196368 3.59166-1.114891.46682-4.282379 3.6259-2.771561 2.76529-5.504892 5.56829-8.267407 8.34316-.443521.44543-.944377.83439-1.427665 1.23849-.03672.0222-.07845.0348-.121338.0366-.04286.002-.08549-.007-.12401-.026-.07639-.0606-.171927-.19537-.150919-.26657.388303-1.31336.742051-2.63956 1.204146-3.92758 1.074922-2.99522.874708-2.65279 1.60181-5.7418.119301-.50757.250798-1.03325-.008-1.54553-.04723-.0931-.131472-.249-.184071-.2431-.202274.007-.3996.0641-.574437.166-.164782.12999-.290221.30318-.362293.5003-.260483.69254-.508609 1.39099-.730356 2.09708-1.584087 5.0454-2.221121 6.66684-3.81233 11.70998-.600157 1.90246-.563843 3.12775 2.368872 3.05631.845-.0204 1.69471-.046 2.532407-.14976 3.88493-.47968 4.465696-.89271 8.345966-1.40864.51903-.0857 1.03063-.21167 1.53009-.37677.3343-.099.48135-.38579.52755-.714.0507-.36121-.273-.9407-.54269-1.06815-.59859-.28308-1.23642-.29226-1.86679-.24747-2.42718.17227-1.550966.28176-3.976402.47747-1.580277.12745-3.157934.27456-4.738026.39942-.07797.006-.191929-.10419-.241406-.18738-.01781-.0402-.0255-.0842-.02246-.12814.003-.0439.01669-.0864.03985-.12385.416771-.47458.825208-.95824 1.273413-1.40176 3.535283-3.49811 7.075066-6.99154 10.619396-10.4803zm14.354002-11.11462c3.33952-3.39404 32.013085-31.723426 35.349615-35.120836.66355-.67865 1.28294-1.40331 1.88566-2.13735.0984-.12246.15795-.27181.17039-.42855.0122-.15673-.023-.31354-.10107-.44997-.11695-.22575-.55166-.27976-.81624-.0868-.25585.18633-.52943.35234-.76518.56125-1.50444 1.33298-3.04477 2.62951-4.49027 4.02394-2.96952 2.86533-31.236745 30.703566-34.157295 33.618216-.20975 3.02987 1.71046.81901 2.92439.0201z"/>
  <path d="M81.761719 121.31445a.4873085.4873085 0 0 0-.580078.3711s-.780778 3.45511 1.800781 5.1875c1.269926.8522 2.871332 1.09678 4.15625 1.15625 1.284917.0595 2.28125-.0801 2.28125-.0801a.4873085.4873085 0 0 0 .414062-.55078.4873085.4873085 0 0 0-.550781-.41406s-.908173.1274-2.099609.0723c-1.191437-.0551-2.639792-.30877-3.658203-.99219-1.995115-1.33884-1.390625-4.16992-1.390625-4.16992a.4873085.4873085 0 0 0-.373047-.58008z"  style="-inkscape-stroke:none" transform="translate(-55.53811 -83.931112)"/>
</svg>
