<svg xmlns="http://www.w3.org/2000/svg" xml:space="preserve" viewBox="0 0 71.577629 68.25074">
  <g fill="none" class="UnoptimicedTransforms">
    <path fill="maroon" d="M 10.406056,28.351601 C 15.074707,19.808572 21.835245,10.877252 32.281471,9.7506694 46.535578,7.8738803 61.656981,13.90609 70.219514,25.578464 c 5.242712,7.399427 9.63496,-3.311633 13.553879,-6.460593 9.160431,-7.762041 22.021127,-11.6219436 33.900187,-9.5017882 12.065,3.2049622 17.83927,17.1610492 16.59125,28.7382732 -1.31442,12.903564 -9.66293,23.566082 -17.06694,33.7011 C 105.5034,87.356201 93.610518,102.51244 81.380837,117.38852 64.815596,110.97825 47.389594,105.47707 33.68722,93.668077 20.47155,82.675919 9.0181817,68.0522 5.7053824,50.848461 4.5222746,43.076452 6.5542515,35.114629 10.406056,28.351601 Z" clip-path="url(#clipPath163)" transform="matrix(.35331734 0 0 .36439932 5.634906 14.810875)"/>
    <path fill="#000" d="m 67.3959,125.449 c 5.496707,-0.47619 7.138917,9.28704 11.9706,3.151 C 97.591839,117.55658 109.87631,99.667917 122.95602,83.359301 129.9896,73.870812 136.8461,63.859878 140.64662,52.5922 145.9845,35.207282 140.33182,13.683591 124.23203,3.9759326 111.75087,-2.8332824 95.912729,0.72008288 84.637372,8.3575361 79.210056,10.259609 75.498883,21.882337 70.502309,14.119832 59.113005,3.1766295 40.990384,-1.0503453 26.374398,5.5098355 15.7152,10.850142 9.3173004,21.784181 4.292664,32.136645 -1.773454,45.623678 1.039068,61.122372 7.2767225,73.996616 18.920905,98.48633 41.524102,117.51992 67.3959,125.449 Z M 17.7895,30.135 c 4.108448,-7.995131 9.84995,-16.798283 19.576885,-18.037277 13.052047,-1.88426 26.646973,4.412727 33.951752,15.34814 5.01705,7.271825 8.886266,-4.041862 12.761306,-6.866465 8.14743,-7.037945 19.834257,-10.9691245 30.483747,-8.387943 10.79923,3.988675 15.03024,17.01111 14.0708,27.643369 -1.31338,13.475913 -9.85172,24.678288 -17.25513,35.508748 C 101.5327,89.181668 91.586201,102.95465 81.3067,116.474 66.384876,110.24884 50.64721,104.75564 38.624427,93.472365 26.316656,82.357572 16.005547,67.721678 13.475313,51.037965 12.670184,43.826047 14.449939,36.519848 17.7895,30.135 Z" clip-path="url(#clipPath163)" transform="matrix(.35331734 0 0 .36439932 5.634906 14.810875)"/>
  </g>
  <g fill="none">
    <path fill="#000" d="m 45.4294,89.0373 c 4.3101,-5.4476 8.1746,-10.2953 12.0063,-15.1719 6.2746,-7.9869 12.4048,-16.0935 18.8507,-23.938 2.6877,-3.2706 6.0134,-6.0225 9.0969,-8.9596 1.3238,-1.2615 3.0276,-2.3629 4.6232,-0.8671 1.7721,1.6599 0.6564,3.4715 -0.7219,4.857 -14.8332,14.9048 -25.0105,33.3564 -37.9141,49.7314 -3.8028,4.8254 -7.0051,5.4539 -11.7097,1.3684 -1.5082,-1.2647 -2.9219,-2.6379 -4.23,-4.1086 C 26.2532,81.2604 16.9876,70.6421 8.06665,59.7423 5.20239,56.2434 3.23017,51.9976 1.00124,48.0084 c -0.379361,-0.68 -0.225824,-2.4718 0.08397,-2.5781 1.13743,-0.3938 2.8012,-0.8251 3.62556,-0.2777 3.24231,2.1547 6.65003,4.3023 9.24853,7.137 6.2719,6.8437 12.1074,14.0857 18.1517,21.1394 3.5547,4.148 7.1803,8.2363 10.7553,12.3673 0.7804,0.9038 1.486,1.8765 2.5631,3.241 z" transform="matrix(.10201604 .08917408 -.08917408 .10201604 62.45714 -.712851)"/>
    <path fill="#000" d="M 45.4294,49.6574 C 49.7395,44.2098 53.604,39.3621 57.4357,34.4856 63.7103,26.4986 69.8405,18.392 76.2864,10.5475 78.9741,7.27696 82.2998,4.52502 85.3833,1.58791 86.7071,0.326427 88.4109,-0.774937 90.0065,0.720856 91.7786,2.38073 90.6629,4.19232 89.2846,5.57785 74.4514,20.4826 64.2741,38.9343 51.3705,55.3092 47.5677,60.1346 44.3654,60.7634 39.6608,56.6777 38.1526,55.4129 36.7389,54.0397 35.4308,52.569 26.2532,41.8805 16.9876,31.2622 8.06665,20.3624 5.20239,16.8635 3.23017,12.6177 1.00124,8.62848 0.621879,7.94851 0.775416,6.15672 1.08521,6.0504 2.22264,5.65659 3.88641,5.22532 4.71077,5.7727 c 3.24231,2.15476 6.65003,4.3023 9.24853,7.137 6.2719,6.8437 12.1074,14.0857 18.1517,21.1394 3.5547,4.148 7.1803,8.2364 10.7553,12.3674 0.7804,0.9037 1.486,1.8764 2.5631,3.2409 z" transform="matrix(.10201604 .08917408 -.08917408 .10201604 62.45714 -.712851)"/>
  </g>
  <path d="M71.726773 136.80165c3.33952-3.39405-2.352101 2.29283.984419-1.10458.66355-.67865 1.28294-1.40331 1.88566-2.13735.0984-.12246.15796-.27181.17039-.42855.0122-.15673-.023-.31355-.10107-.44997-.608933-.42174-1.134478.0836-1.58141.47444-4.196368 3.59166-1.114891.46682-4.282379 3.6259-2.771561 2.76529-5.504892 5.56829-8.267407 8.34316-.443521.44543-.944377.83439-1.427665 1.23849-.03672.0222-.07845.0348-.121338.0366-.04286.002-.08549-.007-.12401-.026-.07639-.0606-.171927-.19537-.150919-.26657.388303-1.31336.742051-2.63956 1.204146-3.92758 1.074922-2.99522.874708-2.65279 1.60181-5.7418.119301-.50757.250798-1.03325-.008-1.54553-.04723-.0931-.131472-.249-.184071-.2431-.202274.007-.3996.0641-.574437.166-.164782.12999-.290221.30318-.362293.5003-.260483.69254-.508609 1.39099-.730356 2.09708-1.584087 5.0454-2.221121 6.66684-3.81233 11.70998-.600157 1.90246-.563843 3.12775 2.368872 3.05631.845-.0204 1.69471-.046 2.532407-.14976 3.88493-.47968 4.465696-.89271 8.345966-1.40864.51903-.0857 1.03063-.21167 1.53009-.37677.3343-.099.48135-.38579.52755-.714.0507-.36121-.273-.9407-.54269-1.06815-.59859-.28308-1.23642-.29226-1.86679-.24747-2.42718.17227-1.550966.28176-3.976402.47747-1.580277.12745-3.157934.27456-4.738026.39942-.07797.006-.191929-.10419-.241406-.18738-.01781-.0402-.0255-.0842-.02246-.12814.003-.0439.01669-.0864.03985-.12385.416771-.47458.825208-.95824 1.273413-1.40176 3.535283-3.49811 7.075066-6.99154 10.619396-10.4803zM86.080775 125.68703c3.33952-3.39404 32.013085-31.723426 35.349615-35.120836.66355-.67865 1.28294-1.40331 1.88566-2.13735.0984-.12246.15795-.27181.17039-.42855.0122-.15673-.023-.31354-.10107-.44997-.11695-.22575-.55166-.27976-.81624-.0868-.25585.18633-.52943.35234-.76518.56125-1.50444 1.33298-3.04477 2.62951-4.49027 4.02394-2.96952 2.86533-31.236745 30.703566-34.157295 33.618216-.20975 3.02987 1.71046.81901 2.92439.0201z" transform="translate(-55.53811 -83.931112)"/>
  <path d="m 81.761719,121.31445 a 0.4873085,0.4873085 0 0 0 -0.580078,0.3711 c 0,0 -0.780778,3.45511 1.800781,5.1875 1.269926,0.8522 2.871332,1.09678 4.15625,1.15625 1.284917,0.0595 2.28125,-0.0801 2.28125,-0.0801 a 0.4873085,0.4873085 0 0 0 0.414062,-0.55078 0.4873085,0.4873085 0 0 0 -0.550781,-0.41406 c 0,0 -0.908173,0.1274 -2.099609,0.0723 -1.191437,-0.0551 -2.639792,-0.30877 -3.658203,-0.99219 -1.995115,-1.33884 -1.390625,-4.16992 -1.390625,-4.16992 a 0.4873085,0.4873085 0 0 0 -0.373047,-0.58008 z" color="#000" style="-inkscape-stroke:none" transform="translate(-55.53811 -83.931112)"/>
</svg>
