<?xml version="1.0" encoding="UTF-8" standalone="no"?>
<svg
   xml:space="preserve"
   viewBox="0 0 182.3867 182.12291"
   version="1.1"
   id="svg128"
   sodipodi:docname="logo.svg"
   inkscape:version="1.2.2 (b0a8486541, 2022-12-01)"
   xmlns:inkscape="http://www.inkscape.org/namespaces/inkscape"
   xmlns:sodipodi="http://sodipodi.sourceforge.net/DTD/sodipodi-0.dtd"
   xmlns="http://www.w3.org/2000/svg"
   xmlns:svg="http://www.w3.org/2000/svg"><defs
   id="defs132" /><sodipodi:namedview
   id="namedview130"
   pagecolor="#ffffff"
   bordercolor="#000000"
   borderopacity="0.25"
   inkscape:showpageshadow="2"
   inkscape:pageopacity="0.0"
   inkscape:pagecheckerboard="0"
   inkscape:deskcolor="#d1d1d1"
   showgrid="false"
   inkscape:zoom="2.4077147"
   inkscape:cx="60.430749"
   inkscape:cy="112.76253"
   inkscape:window-width="2542"
   inkscape:window-height="1012"
   inkscape:window-x="9"
   inkscape:window-y="37"
   inkscape:window-maximized="1"
   inkscape:current-layer="svg128" />
  <path
   d="M84.136181 181.986386c-.87313-.12308-3.135315-.35821-5.027085-.5225-4.0218-.34928-6.00838-.75418-12.17083-2.48061-.14552-.0408-.62177-.16228-1.05833-.27002-5.62422-1.388-14.18298-4.84567-18.78542-7.58915-1.01864-.6072-2.09021-1.23801-2.38125-1.40179-6.08856-3.42629-14.872925-10.2744-20.055004-15.63446-3.652443-3.77789-8.998685-10.61793-10.914088-13.9636-.685165-1.19679-1.64718-2.84877-2.13781-3.67107-.49063-.8223-.892053-1.55992-.892053-1.63915 0-.0792-.760346-1.74048-1.689656-3.69166-.929311-1.95118-1.773988-3.83294-1.877062-4.18169-.103071-.34874-.51729-1.40798-.920486-2.35387-.403195-.94588-.879657-2.19604-1.058801-2.77812-.179147-.58209-.542851-1.53459-.808233-2.11667-1.32783-2.91243-3.634005-13.85808-4.180949-19.84375-.303598-3.32254-.199715-16.27281.14963-18.65312.181536-1.23693.399018-2.84427.483293-3.57188.343429-2.96507 1.466022-7.50382 3.657576-14.78791 2.043798-6.79299 4.704525-12.41179 9.825789-20.74964 1.088384-1.77198 3.525075-5.385463 4.20054-6.229177 3.622789-4.525168 8.914754-10.237781 11.81177-12.750661 2.433576-2.110891 2.820858-2.420488 5.806584-4.641832 3.18334-2.368354 6.5444-4.626223 7.33889-4.93006.25648-.09808 1.0021-.589039 1.65695-1.091012.65484-.501975 2.32172-1.442696 3.70416-2.090491 1.38245-.647796 2.81254-1.334236 3.17797-1.525424 1.38688-.725577 5.07225-2.097428 10.0453-3.739295 9.35572-3.088817 12.70981-3.735864 24.715225-4.767873 4.9964-.429501 5.53146-.428707 10.58333.01566 2.92648.257416 5.7376.569407 6.24692.693314.50932.123907 1.52135.283176 2.24896.353933.7276.07076 2.03729.324832 2.91042.56461.87312.239779 1.82562.482754 2.11666.539941 4.4634.877025 13.36321 3.560371 15.61042 4.706635 1.08759.55476 3.15593 1.393114 3.16642 1.283431.0171-.178467 4.20304 1.827418 5.79031 2.774672 6.86431 4.096509 17.76342 12.285072 19.88285 14.938101.43656.546471 1.12461 1.251241 1.529 1.566156.77924.606828 3.58345 3.780415 5.35017 6.054897.58208.749377 1.862 2.336078 2.84427 3.525995.98226 1.18992 1.78593 2.26297 1.78593 2.38455 0 .12159.47625.85186 1.05834 1.62282.58208.77096 1.05833 1.47499 1.05833 1.5645 0 .0895.34694.75117.77098 1.47034.75474 1.28005 3.69197 7.0774 5.44863 10.75424.48667 1.01865 1.20994 2.92365 1.60726 4.23334.39732 1.30968.9508 2.91703 1.22996 3.57187.27916.65484.60796 1.66688.73067 2.24896.37869 1.79642 1.6063 6.80856 2.00919 8.20319.4258 1.47399.73341 3.84395 1.28764 9.92077 1.13364 12.42972-.35939 24.82854-4.45041 36.95817-.92672 2.74769-1.99832 5.65819-2.38131 6.46778-.383.80959-.69636 1.54932-.69636 1.64384 0 .16796-1.80898 3.88792-3.3012 6.78854-.93179 1.81124-5.40934 8.57749-7.16433 10.82636-3.43786 4.40535-6.63197 7.95845-9.58465 10.66189-.59052.54068-1.23213 1.2004-1.42581 1.46604-.19367.26564-.76885.76833-1.27818 1.11709-.50932.34876-1.22369.94546-1.5875 1.32601-.94769.99131-5.17151 4.18181-6.34806 4.79506-.5481.28569-1.20807.75315-1.46659 1.03882-.25852.28566-1.19559.93707-2.08238 1.44758-.88679.51051-2.70281 1.62712-4.03562 2.48134-1.3328.85422-3.29733 1.93702-4.36562 2.40622-1.06829.46921-3.25204 1.48868-4.85277 2.26551-2.79853 1.3581-10.55909 4.0889-11.62013 4.0889-.28222 0-.87877.11216-1.32566.24923-3.12317.95794-8.28505 1.88125-13.51254 2.41698-3.34054.34234-14.49583.49821-16.40416.2292zm12.7-5.27234c1.74625-.13655 3.65125-.31898 4.23333-.40541 12.99982-1.93032 19.63507-3.94706 29.10416-8.84605 6.9065-3.57318 7.38356-3.84332 6.94121-3.93055-.22542-.0444-1.75819.17364-3.40616.48465-1.64797.311-3.53424.61763-4.19172.68139-.65747.0638-2.3265.26239-3.70895.44139-2.70087.34973-15.68631.43145-18.38854.11572-.87313-.10201-3.07578-.35831-4.89479-.56955-5.08896-.59096-12.85971-2.2036-17.06563-3.54157-2.752-.87546-9.731785-3.80726-12.435405-5.22338-1.01865-.53355-2.50693-1.31178-3.30729-1.7294-.80037-.41761-2.12124-1.20704-2.93526-1.75428-.81403-.54724-2.18325-1.46906-3.04271-2.04847-4.50446-3.03676-11.57215-9.51647-15.6541-14.35179-4.1801-4.9516-8.8612-13.66459-10.49421-19.53301-.36241-1.30238-.95466-3.37999-1.3161-4.61692-1.06027-3.62845-1.52082-8.12228-1.53201-14.94896-.009-5.39502.0703-6.56569.69777-10.31874.38927-2.32834.98858-5.12631 1.33179-6.21771.34321-1.09141.93657-2.99641 1.31858-4.23334 1.11761-3.61876 1.92712-5.47376 3.99217-9.14807 2.18467-3.88716 3.40266-5.62571 6.75168-9.63734 4.74037-5.67826 10.06904-9.86894 17.83969-14.02984 3.45194-1.8484 9.67978-3.99332 13.89062-4.78405 4.747395-.89149 13.156695-1.21646 16.536455-.63903 1.16417.19889 3.30729.55194 4.7625.78454 1.45521.2326 3.24114.64988 3.96875.92729.7276.27742 2.15635.76571 3.175 1.0851 2.73735.85827 7.95684 3.26506 9.92187 4.57514 2.3493 1.56626 4.37697 2.99421 6.23951 4.39405 1.80208 1.35439 6.65885 6.26758 6.87792 6.95781.0811.25542.25148.46441.37869.46441.56566 0 4.60903 6.18321 5.88262 8.99583.23062.50932.72726 1.60302 1.10362 2.43044.37637.82742.68431 1.68885.68431 1.91428 0 .22543.43277 1.69157.9617 3.2581 1.06488 3.15378 1.05151 3.08918 1.4111 6.81697.47793 4.95473.32924 7.8177-.78735 15.16056-.26731 1.75784-.54798 2.72883-1.96554 6.79985-.72817 2.09122-4.13251 8.76503-5.18683 10.1682-2.49022 3.31417-5.63811 6.61126-8.19141 8.57966-4.9493 3.81552-11.83179 7.00851-17.19792 7.97862-3.5801.64723-10.56315.80298-12.96458.28916-1.09141-.23352-2.27157-.42468-2.62258-.4248-.61997-.00021-1.79637-.30287-5.27835-1.358-2.20875-.66931-5.44699-2.29654-8.238655-4.13996-2.22027-1.46611-8.73124-7.66097-8.73124-8.30733 0-.16966-.16302-.49643-.36226-.72617-.72609-.83726-3.02202-5.50254-3.69704-7.51234-.81997-2.44136-1.78035-7.26607-1.86895-9.38916-.0627-1.50298.23013-5.70222.52032-7.461.52116-3.15855 2.4643-7.92503 4.40649-10.80901 3.55406-5.27748 9.10639-9.19357 15.288925-10.78336 2.28214-.58684 3.34498-.7127 5.95313-.70494 4.90156.0146 8.66806 1.11971 12.23585 3.59019 7.08117 4.90328 8.94683 7.40685 10.23536 13.73503.46149 2.26648.52868 4.88476.16153 6.29501-.13259.50932-.41112 1.58088-.61894 2.38125-1.00213 3.85937-3.806 7.82547-6.66425 9.42664-3.7702 2.11205-5.43222 2.59188-8.37972 2.41928-3.69914-.21663-7.08284-1.68995-8.98228-3.91104-2.09061-2.44465-3.13629-4.78948-2.86452-6.4234.22285-1.33985 1.41216-2.57096 2.47907-2.56621 1.90502.009 2.50909.64047 3.21962 3.36837.63639 2.44327 2.19005 3.73586 5.18673 4.31515 1.5614.30184 1.97232.28832 3.41325-.1123 2.09646-.58286 3.58768-1.46314 4.88873-2.88585 2.3872-2.61042 2.98364-4.04722 3.19455-7.69555.28079-4.85714-.80367-7.97246-3.72307-10.69529-3.22206-3.00509-5.31994-4.41538-7.96108-5.35178-2.03706-.72223-2.91542-.89216-4.9879-.96496-3.69186-.12968-8.64157 1.26313-11.680845 3.2869-4.34521 2.89336-7.55356 7.28326-9.31595 12.74677-1.27112 3.94056-1.12013 11.1078.32741 15.54225 2.16168 6.62211 6.50669 11.9457 12.824995 15.71344 3.0972 1.84692 3.80061 2.12686 9.92188 3.94862.43656.12992 2.65652.36887 4.93324.53099 3.83399.273 4.36122.2533 7.14375-.26693 5.85247-1.09419 9.90683-2.72152 14.70164-5.90088 2.59-1.7174 6.31931-5.26735 8.25205-7.85517 1.87711-2.51335 1.83183-2.43744 3.70938-6.21801 2.58261-5.20027 3.5429-8.74301 4.1117-15.16905.30555-3.4519.30347-4.61532-.0139-7.80521-.20515-2.06176-.55142-4.19755-.76948-4.7462-.21807-.54865-.39648-1.17629-.39648-1.39476 0-.42413-1.53679-4.52554-2.40778-6.4259-1.62278-3.54069-7.11235-10.85129-10.14814-13.51454-.43007-.37731-1.32304-1.17859-1.98437-1.78064-2.32353-2.11526-6.51775-4.528-11.91803-6.85588-3.60394-1.55353-8.22684-2.78466-12.41007-3.30492-2.81385-.34996-8.68725-.42677-10.87327-.1422-4.12773.53734-5.371265.75099-7.858035 1.35012-1.49025.35904-3.21911.84724-3.8419 1.08489-1.39552.53251-3.87826 1.61577-4.51757 1.97108-.26115.14513-1.15412.62874-1.98438 1.07467-4.66611 2.50619-12.89744 8.85996-14.45879 11.16075-.35511.52328-1.53012 1.99826-2.61114 3.27773-3.49797 4.14014-5.61589 7.78672-6.91255 11.90185-.40391 1.28189-1.12982 3.58087-1.61311 5.10883-.87981 2.78158-1.43367 5.30261-1.97037 8.96861-.15758 1.07643-.34474 2.05135-.41591 2.1665-.28432.46004-.10724 8.81143.26467 12.48207.80012 7.89706 3.53837 16.30223 7.26973 22.31475.44243.71291.92919 1.58122 1.0817 1.92959.29416.67195 1.84938 2.7489 2.16388 2.88978.10264.046 1.05275 1.11755 2.11135 2.38125 4.34387 5.18549 12.78481 12.54467 17.03197 14.84922 1.01237.54932 2.61458 1.46954 3.56047 2.04494.94588.5754 2.37463 1.32187 3.175 1.65883.80036.33696 2.54126 1.12934 3.86867 1.76085 1.327405.63151 2.875215 1.25867 3.439575 1.3937.56437.13503 1.5619.42839 2.21674.65192 3.42222 1.16815 5.68878 1.80348 8.15961 2.28716 1.50461.29454 2.82615.59145 2.93676.65982.26895.16621 5.70298.89383 9.80572 1.31299 8.99678.91915 21.81068.0708 30.29479-2.00576 3.33549-.81638 4.11872-1.06605 7.86958-2.50861 1.27234-.48933 2.53708-.88969 2.81055-.88969.47999 0 2.72685-1.67681 4.43503-3.30981.92643-.88566 4.36503-4.95607 6.18379-7.32 2.22981-2.89818 3.70417-4.90415 3.70417-5.03977 0-.0744.50602-.91642 1.12448-1.87105 4.90433-7.57011 8.28525-15.35229 10.22837-23.54359.85443-3.60189 1.12599-4.83404 1.23745-5.61474.19397-1.35854.92731-5.71807 1.20169-7.14375.37733-1.96056.50563-14.1644.18497-17.59479-.12923-1.38245-.41721-3.46604-.63997-4.63021-.22275-1.16416-.4378-2.47385-.47787-2.91041-.0401-.43657-.20733-1.21047-.37168-1.7198-.16434-.50932-.67412-2.53338-1.13283-4.49791-.8433-3.61166-2.34772-8.18555-3.51226-10.67835-.34948-.74811-.72445-1.65094-.83325-2.00629-.60846-1.9872-4.8222-9.41767-7.52839-13.2755-5.77402-8.231182-12.04586-15.066769-17.09706-18.633847-1.00679-.710975-2.60443-1.907164-3.55031-2.658197-.94589-.751033-2.91042-2.168863-4.36563-3.150735-5.51028-3.71794-8.65913-5.361656-13.49375-7.043803-1.66638-.579797-2.87752-1.142508-2.83345-1.316463.0423-.167098-.0884-.240364-.29049-.162809-.20211.07756-1.90362-.272111-3.78114-.777034-7.04628-1.894961-11.23585-2.780604-16.24596-3.434257-4.44941-.580504-5.77831-.652203-9.65729-.521057-2.47385.08364-5.27182.261414-6.21771.395052-.94588.133641-2.55323.31473-3.571865.402421-1.91852.165155-3.104.369543-7.14375 1.231651-1.30969.279493-2.91703.569243-3.57188.643887-.65484.07464-1.42875.239755-1.71979.366911-.84017.367078-4.67155 1.550689-5.68854 1.757333-.50932.103492-1.34276.395394-1.85208.648674-.50933.25328-1.69995.719762-2.64584 1.036624-3.25444 1.090203-12.51948 6.208945-16.40416 9.062958-.94589.694925-2.25441 1.654522-2.90782 2.132436-3.21724 2.353119-6.416242 5.119269-8.233715 7.119611-4.079166 4.489596-5.582669 6.211446-6.405068 7.335244-.463068.63278-1.209929 1.58528-1.659694 2.11667-1.243579 1.46927-3.474696 4.88335-4.668843 7.14432-.587922 1.11316-1.321876 2.32691-1.631013 2.69723-.309134.37032-.901361 1.47165-1.316058 2.4474-.4147.97574-.859663 1.77409-.988812 1.77409-.129146 0-.234812.12559-.234812.27909 0 .15351-.225182.77859-.500401 1.38907-2.110701 4.68183-2.979822 6.95052-4.815978 12.57126-1.440624 4.40997-2.469459 10.01584-2.970887 16.18766-.292893 3.60507-.170833 14.01842.192278 16.40416.07752.50932.21268 1.64042.300358 2.51354.374507 3.72957 1.834679 9.97881 2.923156 12.51054.205457.47788.373557 1.02823.373557 1.223 0 1.17564 4.203798 11.47376 5.950434 14.57688 2.270506 4.03384 3.58757 6.14737 6.991358 11.21918 2.408459 3.58873 9.797097 11.35265 13.74869 14.44701.92804.72672 1.88054 1.53394 2.11666 1.79383.23612.25989 1.38182 1.09257 2.54598 1.8504 1.16417.75784 2.25459 1.50806 2.42316 1.66716 1.05181.99271 7.96503 4.82853 11.33517 6.28935 1.60073.69385 3.44402 1.50441 4.09619 1.80125 3.4757 1.58197 16.73074 4.9687 21.17152 5.40942.65485.065 1.48828.19084 1.85208.27968.635355.15514 6.738165.49196 10.318745.56951.94589.0205 3.14855-.0745 4.8948-.21102z"
   id="path126"
   style="fill:#008000" />
</svg>
