<svg xmlns="http://www.w3.org/2000/svg" viewBox="0 0 140.8662 119.68202">
  <path
    d="M36.147046 119.429987c-.38243-.22264-1.83006-3.00597-3.05143-5.8669-.53286-1.24819-.91731-2.58245-1.18947-4.12821-.47507-2.69824-.50614-4.33822-.11721-6.18714.6097-2.89839.57064-2.8797 6.8573-3.28074 3.84097-.24503 5.92498-1.36648 6.98901-3.76095.20456-.46034.41434-1.20881.46616-1.66325.0518-.45445.21605-1.57473.36495-2.48952.26605-1.6345.55373-3.84517.80209-6.16362.13896-1.29716.49516-2.14184 1.02215-2.42388.19011-.10175 1.04624-.28243 1.9025-.40153.85626-.11909 2.02062-.36273 2.58747-.54141.94541-.29801 1.03064-.3739 1.03064-.91762 0-.67917-2.03838-4.36982-4.16008-7.53219-1.85294-2.76176-2.54062-4.30322-3.45803-7.75128-1.17303-4.40878-2.03757-6.37262-3.83693-8.71575-2.80874-3.65754-7.81323-6.32477-13.38149-7.13188-7.73463-1.12113-14.26207.84154-19.19081 5.77027-2.99018 2.99018-5.29496 7.25904-5.96905 11.05574-.43781 2.46592-.43491 6.65826.006 8.70763.0579.26906.18847.90883.29018 1.42172.50473 2.54523 2.53055 7.15207 4.80526 10.92744 1.76592 2.93093 2.26459 4.52066 2.29501 7.31638.0231 2.12506.0119 2.1814-.8815 4.42698-1.31302 3.30024-4.43458 10.32934-6.25897 14.09385-1.59687 3.29504-1.90686 3.68852-2.90595 3.68852-.57271 0-1.16485-.70096-1.16485-1.37892 0-.3377.66889-2.01336 1.54267-3.86462 3.40603-7.21623 6.06434-13.12373 6.48477-14.41094.57987-1.77536.58543-3.52375.0164-5.16782-.23664-.68376-1.13551-2.44486-1.99747-3.91354-3.86921-6.59265-5.1637-10.49804-5.39827-16.28624-.13388-3.30366.0828-5.19652.93628-8.18058 1.10839-3.87513 2.79588-6.79294 5.75797-9.95602 3.54863-3.78942 7.17655-5.8238 12.35071-6.92577 2.48972-.53026 7.00235-.62228 9.46278-.19297.80717.14084 1.64369.28413 1.85893.31844 2.57724.4107 6.52121 2.07059 9.13391 3.84415 1.49188 1.01273 3.71909 3.13446 4.80127 4.57388 1.66233 2.21107 2.62436 4.54365 4.15645 10.07789.64541 2.33138 1.23382 3.57291 2.64304 5.57679 1.13762 1.61768 3.95749 6.38968 4.65977 7.8856.67866 1.44564.72296 2.4216.16 3.5251-.53657 1.05176-1.35093 1.50729-3.54814 1.98474-1.01836.22129-2.03735.44439-2.26443.49576-.46327.10482-.68803.98208-1.05329 4.11109-.11306.96861-.28881 2.20137-.39055 2.73948-.78234 4.13799-1.17033 5.13403-2.69513 6.91881-1.97979 2.31738-3.40448 2.86625-8.41806 3.24309-1.85995.13981-3.44494.31751-3.52219.3949-.0773.0774-.13658 1.29998-.13185 2.71688.008 2.3379.0672 2.76598.64227 4.62856.34851 1.12882 1.20317 3.2147 1.89924 4.63528.69607 1.42059 1.26558 2.76842 1.26558 2.99518 0 .22676-.21613.62843-.4803.8926-.50536.50536-1.1453.60423-1.72537.26654zm66.90332-.1918c-.79654-.62656-.67957-1.36607.62406-3.94526 1.36558-2.70176 2.30957-5.43207 2.67836-7.74665.20703-1.29932-.0793-4.28952-.42331-4.42155-.15606-.0599-1.53405-.16596-3.0622-.23573-3.07357-.14031-5.20941-.58086-6.50931-1.34265-1.10219-.64593-2.91105-2.66982-3.50132-3.91755-.65359-1.38156-1.45258-4.96771-1.76539-7.92365-.23583-2.2285-.53816-3.53271-.8584-3.70301-.17559-.0934-1.1864-.35725-2.24628-.5864-1.05986-.22914-2.17406-.54437-2.47598-.7005-.75021-.38795-1.31939-1.37651-1.46579-2.54581-.1066-.85148-.0371-1.15125.54369-2.34596.7814-1.60729 3.81013-6.61497 4.85229-8.02276 1.02748-1.38793 2.04878-3.51868 2.49527-5.20586 1.78574-6.748 3.05978-9.28307 6.29914-12.53394 4.48256-4.49851 10.837-6.85846 18.39788-6.83276 6.64341.0226 11.7481 2.16983 16.53253 6.95426 3.75969 3.75969 5.68061 7.24358 6.74722 12.23718.61059 2.85866.61205 7.39132.004 10.45129-.85073 4.27668-1.89567 6.83344-4.86842 11.91209-2.20679 3.77008-2.3769 4.18552-2.51669 6.14618-.12329 1.72922.0481 2.64397.87247 4.6577.59837 1.46158 5.92552 13.03059 6.82304 14.81765 1.00564 2.00232.80603 3.47815-.47043 3.47815-1.0039 0-1.33697-.39021-2.64621-3.10029-4.15853-8.60801-7.11541-15.74232-7.38215-17.81156-.35917-2.78635.28594-5.19255 2.27467-8.48438 6.5029-10.76384 7.29902-20.42683 2.33396-28.3285-2.01553-3.20761-4.92061-5.98527-7.97411-7.62433-3.23082-1.73425-5.99246-2.38281-10.14049-2.38147-4.35936.001-7.71497.75127-11.24106 2.51198-3.02452 1.51024-5.35847 3.56741-7.1646 6.31495-1.15112 1.75112-1.89147 3.60509-3.01686 7.55489-1.04989 3.6848-1.61755 4.94092-3.44813 7.62999-1.89649 2.7859-4.27486 6.96018-4.27486 7.50281 0 .61597 1.47317 1.16137 3.91354 1.44887.37668.0444 1.00544.21583 1.39724.38102.84234.35514 1.05432.8881 1.2333 3.10075.10523 1.30095.38599 3.26366 1.09835 7.6783.25031 1.55121.77316 2.66327 1.75089 3.72397 1.11882 1.21378 2.3927 1.6637 5.37688 1.89904 6.48485.51141 6.55259.53239 7.04636 2.18247.93849 3.13636.42474 7.63164-1.33736 11.70163-2.55489 5.90116-3.09971 6.5609-4.50513 5.4554zm14.10721-71.72181c-.065-.065-.2338-.072-.37505-.0155-.1561.0625-.10974.10883.11822.11822.20627.009.32184-.0377.25683-.10277zm-82.76287 27.47439c-.97411-.25889-2.26475-1.44777-2.57832-2.37502-.61246-1.8111.61079-3.86883 2.48023-4.1722 1.48607-.24115 3.39546.76448 3.88218 2.04465.4812 1.26564-.0736 3.16321-1.14247 3.90774-.43711.30446-1.81159.89193-1.89256.80889-.0108-.0112-.34792-.10745-.74906-.21406zm69.97536-.2425c-1.00704-.43829-1.70241-1.53659-1.79651-2.83748-.0977-1.35083.22953-2.09735 1.26593-2.88784.61993-.47285.89608-.54778 2.02046-.54823 1.1176-.00039 1.40195.0754 2.00413.53423.86568.65965 1.42459 1.99658 1.25964 3.01306-.35281 2.17411-2.79896 3.577-4.75365 2.72626zm-59.8488-49.27459c-1.81291-.64787-2.43255-1.6418-2.28606-3.66695.14009-1.9368 1.38662-3.00963 3.4969-3.00963 2.13434 0 3.45474 1.47368 3.25858 3.63689-.13552 1.49452-.60431 2.23409-1.79102 2.82544-1.08475.54056-1.64082.58504-2.6784.21425zm16.36152-.0137c-.98049-.35962-2.04527-1.48858-2.08287-2.2084-.0155-.29754-.0129-1.01047.006-1.58429.0562-1.71364 1.09911-2.71717 3.01267-2.89899 1.26811-.12049 2.55239.47309 3.23748 1.49633.3971.5931.44931.87365.38963 2.09361-.0512 1.04638-.17398 1.54968-.47742 1.95676-.88188 1.18311-2.63894 1.67554-4.08546 1.14498zm16.60077-.0257c-1.69424-.62173-2.38175-1.87587-2.13054-3.88652.11032-.88294.26546-1.23214.77283-1.73951.6565-.65651 1.79467-1.10902 2.78939-1.10902.76971 0 2.20494.75686 2.68518 1.41603.49441.67861.64125 2.51034.28443 3.54783-.53583 1.55794-2.65664 2.4114-4.40129 1.77119zm17.01166.11934c-.59094-.1404-1.10597-.4302-1.82404-1.02634-.5611-.46584-.83204-1.4779-.72162-2.6956.18437-2.03329 1.27612-3.01267 3.37239-3.02527 2.01904-.0121 3.12111.98142 3.36407 3.03283.21609 1.82453-.71074 3.20026-2.50213 3.71403-.73965.21212-.79726.21214-1.68867.00039z" />
  <path
    d="M45.342836 52.645097c-.79023-.42944-.91668-1.34471-.80473-5.82474l.1-4.00099-1.64167-.13883c-6.26125-.52952-9.47837-2.90101-10.66409-7.86105-.56499-2.36338-.86982-17.5761-.47013-23.46158.22183-3.266476.54407-4.658996 1.38348-5.978436.63461-.99754 2.66954-2.71382 4.06162-3.42562 1.99542-1.0203 2.75714-1.1086 10.01561-1.16097 4.04034-.0291 7.53651-.14949 8.70762-.2997 1.11752-.14333 4.3906-.26613 7.63141-.28631 3.12105-.0195 10.82584-.0902 17.12174-.15717 11.84424-.12607 14.0275-.046 17.37976.6376 2.49862.50948 5.18123 1.82123 6.30212 3.0816 1.93284 2.17337 2.39561 4.40443 2.67001 12.872286.21917 6.76366.12503 10.86966-.33649 14.67577-.63139 5.20715-.98015 6.17524-2.92554 8.12062-1.96056 1.96056-3.65144 2.76358-6.46364 3.06962l-1.46125.15903v4.01138c0 4.48786-.18162 5.56738-.98824 5.87406-.71808.27301-1.42581-.0817-2.53395-1.26994-1.33444-1.43092-6.05218-5.89952-7.5042-7.1079-1.07684-.89616-1.29516-.99528-2.41658-1.09717-.67805-.0616-6.47912-.15956-12.89128-.21768l-11.65847-.10568-.57134.43722c-1.00688.7705-7.37861 6.63084-8.59411 7.90434-1.11275 1.16585-2.11715 1.85395-2.68084 1.83658-.13987-.004-.48493-.13316-.7668-.28634zm6.77416-7.95505c1.07622-.92966 2.44037-2.18594 3.03146-2.79174.67729-.69415 1.33363-1.17118 1.77494-1.29001.75472-.20323 14.52504-.1025 22.58838.16522 6.01234.19962 5.45676-.0674 10.82292 5.20145 2.54422 2.49807 3.23057 3.07562 3.38406 2.8476.11979-.17795.14433-1.44097.0649-3.34251-.0702-1.68106-.0667-3.33362.008-3.67235.18533-.84382.83955-1.13536 3.33335-1.48542 2.53539-.35591 3.50087-.76239 4.85683-2.04479 1.28691-1.21712 2.0145-2.66202 2.5114-4.9873.34399-1.60979.3799-2.60866.38039-10.58303.00039-7.76271-.0473-9.17323-.40308-11.91105-.22702-1.746676-.56195-3.463466-.76543-3.923476-.87072-1.96841-2.30408-2.90117-5.73467-3.73184-3.80083-.92032-5.0286-.95928-22.17624-.70359-9.31083.13883-16.53604.32838-17.5131.45945-1.00703.13508-4.90576.22797-9.88168.23541-7.96331.0119-8.25073.0254-9.25851.43617-2.08481.84967-4.15318 2.8311-4.63844 4.4435-.66031 2.19404-.77959 10.090676-.3269 21.641966.1813 4.62616.29176 5.22813 1.26367 6.88657.62695 1.06982 2.17293 2.53115 3.26968 3.09067.79783.40702 1.72249.55704 5.75731.93407 1.38883.12977 1.58749.20064 1.95677.69806.3871.52144.4098.78031.39042 4.45223l-.0206 3.8986 1.68383-1.61679c.9261-.88923 2.56437-2.37741 3.64059-3.30707z" />
</svg>