<svg xmlns="http://www.w3.org/2000/svg" fill="none" viewBox="0 0 105 19">
  <g  transform="rotate(90 52.649636 9.6168417)">
    <path d="M50.8763 18.6863c1.1253-.0018 2.239-.228 3.2761-.6654 1.0371-.4375 1.977-1.0775 2.7646-1.8825.7515-.7585 1.3417-1.6617 1.7351-2.655.3935-.9933.5822-2.0561.5542-3.1244-.1243-4.27759-4.1406-8.37511-8.4262-8.59591-.8659-.01438-1.7258.14651-2.5282.47299-.8024.32647-1.5305.81193-2.1411 1.42711-.9574.92558-1.7228 2.03154-2.252 3.2544-.5291 1.22288-.8118 2.5386-.8316 3.87121-.0317 1.0328.1432 2.0616.5139 3.0259.3706.9643.9298 1.8447 1.6447 2.5897.7461.7392 1.6321 1.3217 2.6058 1.7136.9739.3918 2.0159.585 3.0652.5683zm39.0951-4.9057c1.4462 1.2415 3.2979 1.906 5.202 1.8666.6776-.0016 1.3526-.0727 2.0152-.2122 1.3638-.2458 2.6524-.8046 3.7644-1.6325 1.113-.828 2.018-1.9028 2.646-3.1399.485-1.01461.69-2.14026.596-3.261-.095-1.12076-.487-2.19597-1.135-3.11448-1.897-2.99938-6.1199-4.481299-9.6154-3.374712C89.9289 2.0262 87.4865 5.85831 87.6383 10.0233c.0039.117.0392.231.1007.3307.1204.1926.2453.4457.3866.7267.4415 1.0077 1.0675 1.9234 1.8458 2.6999zM7.59294 18.4293c.28551.0358.57298.0538.86072.0537 1.66824-.014 3.28244-.5944 4.57864-1.6464.852-.6805 1.5612-1.5233 2.0864-2.4796.5253-.9564.8564-2.0075.9742-3.0927.4421-4.15444-2.3326-8.13591-6.0577-8.69608-.96997-.13483-1.95706-.07078-2.90153.18826-.9445.25904-1.82662.7077-2.59272 1.31866-.94315.73816-1.72897 1.65807-2.31135 2.7055-.58238 1.04735-.94955 2.20111-1.0795 3.39296-.13303.968-.07062 1.9529.18332 2.8964.25395.9435.69428 1.8263 1.29508 2.5962s1.3497 1.4111 2.20244 1.8857c.85274.4746 1.79202.7729 2.762.8774z"/>
  </g>
</svg>
